<svg width="602" height="602" viewBox="0 0 602 602" fill="none" xmlns="http://www.w3.org/2000/svg">
<path fill-rule="evenodd" clip-rule="evenodd" d="M301 602C467.238 602 602 467.238 602 301C602 134.762 467.238 0 301 0C134.762 0 0 134.762 0 301C0 422.744 72.2779 527.607 176.264 575.019L157.76 443.354C150.365 390.738 187.217 341.429 240.176 333.986L331.273 321.183L331.272 321.179L374.386 315.12C382.348 314.001 387.901 306.681 386.79 298.77L382.739 269.947L377.96 270.619C375.306 270.992 372.854 269.157 372.483 266.52L370.456 252.096C370.085 249.459 371.937 247.019 374.591 246.646L379.374 245.974L378.025 236.375L378.026 236.385L375.996 221.94C374.89 214.074 367.61 208.586 359.7 209.625L335.627 213.008L336.303 217.823C336.674 220.459 334.823 222.899 332.169 223.272L317.807 225.291C315.153 225.664 312.701 223.829 312.33 221.192L311.654 216.377L225.351 228.506C172.392 235.949 123.377 198.706 115.983 146.09L298.177 120.486L297.5 115.671C297.13 113.034 298.981 110.594 301.635 110.221L315.997 108.203C318.651 107.83 321.103 109.665 321.473 112.302L322.15 117.117L360.506 111.726C413.465 104.283 462.481 141.524 469.875 194.14L475.266 232.497L480.049 231.825C482.703 231.452 485.155 233.287 485.526 235.924L487.553 250.348C487.924 252.985 486.072 255.425 483.418 255.798L478.635 256.47L484.699 299.62C492.094 352.236 455.244 401.545 402.285 408.989L267.903 427.875C260.087 429.063 254.64 436.238 255.64 444.027L277.183 597.314C277.362 598.59 277.373 599.851 277.233 601.075C285.075 601.688 293.001 602 301 602Z" fill="#FFC121"/>
</svg>
